<?xml version="1.0" encoding="UTF-8"?>
<svg id="_Слой_1" data-name="Слой 1" xmlns="http://www.w3.org/2000/svg" viewBox="0 0 449.81 148.08">
  <defs>
    <style>
      .cls-1 {
        letter-spacing: -.05em;
      }

      .cls-2 {
        letter-spacing: -.05em;
      }

      .cls-3 {
        letter-spacing: 0em;
      }

      .cls-4 {
        letter-spacing: 0em;
      }

      .cls-5 {
        fill: #fbb03b;
        font-family: TypnicHeadlineSlab, 'Typnic Headline Slab';
        font-size: 26px;
      }

      .cls-6 {
        font-family: TypnicHeadlineSlabInline, 'Typnic Headline Slab';
        font-size: 41px;
      }

      .cls-6, .cls-7 {
        fill: #bb0d9c;
      }
    </style>
  </defs>
  <path class="cls-7" d="m77.09,14.08c-4.3-.54-8.3,11.71-11,11-1.2-.32-1.07-2.91-2-3-1.95-.19-3.87,11.13-6,11-1.39-.08-1.66-4.98-3-5-1.18-.01-2.55,3.78-3,7-.42,3.02.21,5.31-1,6-.73.42-1.26-.24-2,0-2.97.95-.69,13.3-3,14-1.34.41-3.31-3.38-4-3-.7.38.59,4.62,2,8,1.43,3.43,2.68,5.23,2,6-.8.91-3.27-.8-4,0-1.33,1.48,5.68,8.65,4,11-.91,1.27-3.66.18-4,1-.8,1.93,14,8.79,13,12-.39,1.24-2.85,1.02-3,2-.4,2.6,16.39,6.63,16,9-.18,1.09-3.96,1.08-4,2-.07,1.47,9.68,1.69,11,6,.54,1.76-.82,2.59,0,4,1.24,2.14,5.75,2.66,9,3,1.25.13,2.71.21,3,1,.35.96-1.35,2.05-1,3,.3.8,1.82.89,3,1,4.13.37,9.01.86,10,3,.31.67.25,1.45,0,2-.95,2.07-5.14,2.04-7,2-18.13-.35-24-1-24-1-18.6-2.13-64.11-7.95-66-16-.37-1.58,0-3,0-3,1.77-6.9,15.99-8.04,16-8,.01.04-16.57,1.63-18,9-.01.08-.18.99,0,2,1.35,7.4,20.21,11.5,30.5,13.5,25.94,5.05,46.2,6.31,49.5,6.5,12.48.73,21.13.74,36,1,24.45.43,50.6.43,65-10,2.15-1.56,7.05-5.2,7-10-.02-1.41-.48-4.8-6-9-18.83-14.3-65.53-14.44-74-27-.54-.8-1.03-1.8-1-3,.15-6.76,16.75-11.4,25.37-12.89,0,0,14.05-2.43,24.63,2.89,3.07,1.54,3.77,3.18,4,4,.61,2.16-.5,4.19-1,5,4.32.07,7.51-1.13,8-3,.1-.37.4-1.96-3-5-7.37-6.58-18.27-6.95-20-7-27.38-.73-44.16,9.66-51,2-1.18-1.32-1.62-2.64-2-4-3.65-13.02,13.28-31.55,29-42,9.36-6.22,21.23-11.53,21-12-.11-.23-3.3.24-6,1-.55.16-1.59.46-2,0-.49-.55.34-1.65,0-2-.74-.76-5.63,4.24-8,3-1.28-.67-.81-2.61-2-3-1.8-.58-3.83,3.56-6,3-1.14-.29-.91-1.52-2-2-2.88-1.27-7.11,6.1-11,5-1.59-.45-1.46-1.85-3-2-2.38-.23-3.35,3.04-7,4-.59.15-1.29.17-1.29.17-1.44.1-2.48-.13-2.71-.17-2.94-.49-7.18,8.46-11,8-1.58-.19-1.49-1.81-3-2Z"/>
  <text class="cls-6" transform="translate(189.96 114.73)"><tspan x="0" y="0">A</tspan><tspan class="cls-1" x="35.96" y="0">L</tspan><tspan class="cls-2" x="62.98" y="0">va</tspan><tspan class="cls-4" x="128.58" y="0">tore</tspan></text>
  <text class="cls-5" transform="translate(224.76 140.28)"><tspan x="0" y="0">CYBER C</tspan><tspan class="cls-3" x="129.92" y="0">L</tspan><tspan x="147.94" y="0">UB</tspan></text>
</svg>